# xmcd
#
# Track frame offsets:
#	150
#	15361
#	31492
#	48004
#	66304
#	82024
#	100861
#	116256
#	132813
#	145485
#	162216
#	178181
#	200084
#	217195
#	234919
#	252961
#	277783
#	294465
#	318429
#	337094
#
# Disc length: 4691
#
# Revision: 2
# Processed by: cddbd v1.5.1PL0 Copyright (c) Steve Scherf et al.
# Submitted via: audiograbber 1.83.01
# Normalized: r1:DSETVAR1
#
DISCID=24125114
DTITLE=Various Artist - This Love - disc 2
DYEAR=2005
DGENRE=pop
TTITLE0=Maroon 5 - This Love
TTITLE1=Natasha Bedingfield - These Words
TTITLE2=Britney Spears - Everytime
TTITLE3=Usher - Burn
TTITLE4=Alicia keys - Fallin'
TTITLE5=Katie Melua - Closest Thing To Crazy
TTITLE6=The Calling - Wherever You Will Go
TTITLE7=Macy Gray - I Try
TTITLE8=The Wannadies - You And Me Song
TTITLE9=Paul Weller - You Do Something To Me
TTITLE10=Beverley Craven - Promise Me
TTITLE11=Jamie Cullum - High And Dry
TTITLE12=Maria McKee - Show Me Heaven
TTITLE13=Cyndi Lauper - Time After Time
TTITLE14=DJ Sammy - Heaven (Candlelight Mix)
TTITLE15=Savage Garden - To The Moon And Back
TTITLE16=Take That - A Million Love Songs
TTITLE17=R Kelly - I Believe I Can Fly
TTITLE18=Daniel Bedingfield - If You're Not The One
TTITLE19=Pretenders - I'll Stand By You
EXTD=
EXTT0=
EXTT1=
EXTT2=
EXTT3=
EXTT4=
EXTT5=
EXTT6=
EXTT7=
EXTT8=
EXTT9=
EXTT10=
EXTT11=
EXTT12=
EXTT13=
EXTT14=
EXTT15=
EXTT16=
EXTT17=
EXTT18=
EXTT19=
PLAYORDER=
